<?xml version="1.0" encoding="utf-8"?>
<!-- Generator: Adobe Illustrator 21.0.0, SVG Export Plug-In . SVG Version: 6.00 Build 0)  -->
<svg version="1.1" xmlns="http://www.w3.org/2000/svg" xmlns:xlink="http://www.w3.org/1999/xlink" x="0px" y="0px"
	 viewBox="0 0 64 64" style="enable-background:new 0 0 64 64;" xml:space="preserve">
<style type="text/css">
	.st0{fill:#FBB684;}
	.st1{fill:#538AC8;}
	.st2{fill:#FDCC99;}
	.st3{fill:#4279BD;}
	.st4{fill:#354E5A;}
	.st5{fill:#ACE0F3;}
	.st6{fill:#DFA57A;}
	.st7{fill:#FED767;}
	.st8{fill:#CCCCCC;}
	.st9{fill:#E6E6E6;}
	.st10{fill:#0B3442;}
	.st11{fill:#F2F2F2;}
	.st12{fill:#B3B3B3;}
	.st13{fill:#65A8DC;}
	.st14{fill:#2E599C;}
	.st15{fill:#FED9B4;}
	.st16{fill:#00A8C7;}
	.st17{fill:#02BFE2;}
	.st18{fill:#FFFFFF;}
	.st19{fill:#68C7C2;}
	.st20{fill:#00969D;}
	.st21{fill:#1CACAB;}
	.st22{fill:#FFE36E;}
	.st23{fill:#FEE9AB;}
	.st24{fill:#CC2B57;}
	.st25{fill:#DB1B51;}
	.st26{fill:#EE3A74;}
	.st27{fill:#FCB216;}
	.st28{fill:#FFCA3E;}
	.st29{fill:#DD2B26;}
	.st30{fill:#009E9E;}
	.st31{fill:#D22227;}
	.st32{fill:#CCDDE7;}
	.st33{fill:#57646E;}
	.st34{fill:#00A161;}
	.st35{fill:#19AD6D;}
	.st36{fill:#ABBAC3;}
	.st37{fill:#7A8D9D;}
	.st38{fill:#55C9E9;}
	.st39{fill:#EE2761;}
	.st40{fill:#A6228E;}
	.st41{fill:#F27DA5;}
	.st42{fill:#F064A5;}
	.st43{fill:#F8B6C6;}
	.st44{fill:#F494B7;}
	.st45{fill:#732672;}
	.st46{fill:#7EC3EC;}
	.st47{fill:#3B6BB4;}
	.st48{fill:#8AD5EC;}
	.st49{fill:#A36841;}
	.st50{fill:#BD8150;}
	.st51{fill:#FFE8C9;}
	.st52{fill:#48B758;}
	.st53{fill:#CC3995;}
	.st54{fill:#37BA95;}
	.st55{fill:none;stroke:#000000;stroke-linecap:round;stroke-linejoin:round;stroke-miterlimit:10;}
	.st56{fill:#D7559F;}
	.st57{fill:#00B08E;}
	.st58{fill:#84CBA0;}
	.st59{fill:#56BF98;}
	.st60{fill:#FEE7A3;}
	.st61{fill:#D3EEF4;}
</style>
<g id="guides">
</g>
<g id="_x32_5._stay_home">
</g>
<g id="_x32_4._covid_news">
</g>
<g id="_x32_3._tissue">
</g>
<g id="_x32_2._clothing">
	<path class="st10" d="M47,25.5c0-0.8271484-0.6728516-1.5-1.5-1.5h-6h-2h-19c-0.8271484,0-1.5,0.6728516-1.5,1.5v8.4599609
		C17,33.9741821,17.006897,33.986084,17.0080566,34H17v1h30v-1h-0.0080566C46.993103,33.986084,47,33.9741821,47,33.9599609V25.5z"
		/>
	<path class="st9" d="M48,36.5v19c0,0.5100098-0.1500244,0.9899902-0.4199829,1.3800049
		C47.1400146,57.5499878,46.3699951,58,45.5,58h-27c-1.3800049,0-2.5-1.1199951-2.5-2.5v-19
		c0-3.210022,2.0599976-6.0100098,5.1300049-6.9500122l3.4400024-1.0599976
		c1.039978-0.3099976,1.9799805-0.9000244,2.710022-1.6900024c0.1899414-0.1799927,0.3499756-0.3800049,0.5-0.5800171
		c0.1599731-0.2099609,0.289978-0.4299927,0.4199829-0.6599731c0.1300049-0.2300415,0.4199829-0.3300171,0.6599731-0.210022
		c0.25,0.1199951,0.5,0.210022,0.7600098,0.2900391c0.1199951,0.039978,0.25,0.0799561,0.3800049,0.0999756
		c1.289978,0.3399658,2.710022,0.3399658,4,0c0.1300049-0.0200195,0.2600098-0.0599976,0.3800049-0.0999756
		c0.2700195-0.0800171,0.5299683-0.1700439,0.7700195-0.2900391c0.2399902-0.1199951,0.5299683-0.0200195,0.6599731,0.210022
		c0.25,0.4599609,0.5599976,0.8800049,0.9199829,1.25c0.7200317,0.7799683,1.6500244,1.3599854,2.7000122,1.6799927
		l3.4400024,1.0599976c0.039978,0.0100098,0.0800171,0.0299683,0.1199951,0.039978
		c0.3400269,0.1100464,0.6699829,0.2399902,0.9799805,0.4000244c2.1300049,1.0499878,3.6000366,3.0700073,3.9400024,5.4299927
		C47.9699707,35.7699585,48,36.1300049,48,36.5z"/>
	<path class="st9" d="M48,36.5v0.3499756l-5,5.8400269V58h-1V42.5c0-0.0100098,0-0.0100098,0-0.0200195s0-0.0100098,0-0.0200195
		l0.9899902-12.8699951c0.3400269,0.1100464,0.6699829,0.2399902,0.9799805,0.4000244
		c2.1300049,1.0499878,3.6000366,3.0700073,3.9400024,5.4299927C47.9699707,35.7699585,48,36.1300049,48,36.5z"/>
	<path class="st8" d="M34,25.7399902V58h-4V25.7399902C31.289978,26.0799561,32.710022,26.0799561,34,25.7399902z"/>
	<path class="st10" d="M48,36.5v0.3499756l-5,5.8400269V58h-1V42.5c0-0.0100098,0-0.0100098,0-0.0200195s0-0.0100098,0-0.0200195
		l0.9899902-12.8699951c0.3400269,0.1100464,0.6699829,0.2399902,0.9799805,0.4000244l-0.8499756,11.0200195l4.789978-5.5900269
		C47.9699707,35.7699585,48,36.1300049,48,36.5z"/>
	<path class="st10" d="M16,36.5v0.3499756l5,5.8400269V58h1V42.5c0-0.0100098,0-0.0100098,0-0.0200195s0-0.0100098,0-0.0200195
		l-0.9899902-12.8699951c-0.3400269,0.1100464-0.6699829,0.2399902-0.9799805,0.4000244l0.8499756,11.0200195l-4.789978-5.5900269
		C16.0300293,35.7699585,16,36.1300049,16,36.5z"/>
	<path class="st16" d="M42,35.5c0,0.7099609-0.210022,1.3699951-0.5800171,1.9199829C40.789978,38.3699951,39.7199707,39,38.5,39
		c-1.9299927,0-3.5-1.5700073-3.5-3.5c0-1.2200317,0.6300049-2.2900391,1.5800171-2.9200439
		C37.1300049,32.2099609,37.789978,32,38.5,32C40.4299927,32,42,33.5700073,42,35.5z"/>
	<path class="st17" d="M42,35.5c0,0.7099609-0.210022,1.3699951-0.5800171,1.9199829C40.8699951,37.789978,40.210022,38,39.5,38
		c-1.9299927,0-3.5-1.5700073-3.5-3.5c0-0.710022,0.210022-1.3699951,0.5800171-1.9200439
		C37.1300049,32.2099609,37.789978,32,38.5,32C40.4299927,32,42,33.5700073,42,35.5z"/>
	<path class="st18" d="M39.5,35H39v-0.5c0-0.2763672-0.2236328-0.5-0.5-0.5S38,34.2236328,38,34.5V35h-0.5
		c-0.2763672,0-0.5,0.2236328-0.5,0.5s0.2236328,0.5,0.5,0.5H38v0.5c0,0.2763672,0.2236328,0.5,0.5,0.5s0.5-0.2236328,0.5-0.5V36
		h0.5c0.2763672,0,0.5-0.2236328,0.5-0.5S39.7763672,35,39.5,35z"/>
	<path class="st8" d="M36.7299805,26.8099976c-0.2399902,0.1300049-0.5,0.2600098-0.7600098,0.3699951
		c-0.2599487,0.1199951-0.5899658,0.25-0.9899902,0.3699951c-0.3699951,0.1099854-0.7999878,0.2299805-1.2600098,0.289978
		C33.2399902,27.9400024,32.6400146,28,32,28c-0.6500244,0-1.2399902-0.0599976-1.7999878-0.1700439
		c-0.3900146-0.0499878-0.8200073-0.1699829-1.1500244-0.2699585c-0.3099976-0.1000366-0.6799927-0.2300415-1.0599976-0.4100342
		C27.75,27.039978,27.5100098,26.9299927,27.2800293,26.7999878c0.1899414-0.1799927,0.3499756-0.3800049,0.5-0.5800171
		c0.1599731-0.2099609,0.289978-0.4299927,0.4199829-0.6599731c0.1300049-0.2300415,0.4199829-0.3300171,0.6599731-0.210022
		c0.25,0.1199951,0.5,0.210022,0.7600098,0.2900391c0.1199951,0.039978,0.25,0.0799561,0.3800049,0.0999756
		c1.289978,0.3399658,2.710022,0.3399658,4,0c0.1300049-0.0200195,0.2600098-0.0599976,0.3800049-0.0999756
		c0.2700195-0.0800171,0.5299683-0.1700439,0.7700195-0.2900391c0.2399902-0.1199951,0.5299683-0.0200195,0.6599731,0.210022
		C36.0599976,26.0199585,36.3699951,26.4400024,36.7299805,26.8099976z"/>
	<path class="st9" d="M39.1704102,6.5507813c-4.7583008-1.3896484-9.5825195-1.390625-14.3388672-0.0009766
		C23.7358398,6.8642578,23,7.8330078,23,8.9599609V18c0,3.59375,2.1362305,6.8359375,5.4233398,8.25
		c0.2910156,0.140625,0.5922852,0.2490234,0.9057617,0.3496094c0.3208008,0.0947266,0.7026367,0.1982422,1.0712891,0.2509766
		C30.8959961,26.9511719,31.4194336,27,32,27s1.1040039-0.0488281,1.5717773-0.1445313
		c0.3964844-0.0576172,0.7783203-0.1611328,1.1064453-0.2578125c0.3583984-0.1113281,0.6474609-0.2216797,0.890625-0.3388672
		C38.8681641,24.828125,41,21.5859375,41,18V8.9599609C41,7.8330078,40.2641602,6.8642578,39.1704102,6.5507813z"/>
	<path class="st15" d="M38,9.7199707V18c0,0.8599854-0.1900024,1.7099609-0.539978,2.4699707
		c-0.6900024,1.5499878-2.0300293,2.7399902-3.6799927,3.2700195C33.2199707,23.9099731,32.6199951,24,32,24
		s-1.2199707-0.0900269-1.789978-0.2600098c-1.6400146-0.5300293-2.9800415-1.7200317-3.6799927-3.2800293
		C26.1900024,19.7099609,26,18.8599854,26,18V9.7199707c0-0.2299805,0.1500244-0.4299927,0.3699951-0.4799805
		c3.7600098-0.9799805,7.539978-0.9799805,11.2600098,0C37.8499756,9.289978,38,9.4899902,38,9.7199707z"/>
	<path class="st4" d="M37.3950195,19.9414063C36.4052734,18.7441406,34.3378906,18,32,18s-4.4052734,0.7441406-5.3950195,1.9414063
		c-0.1210938,0.1464844-0.1489258,0.3486328-0.0712891,0.5224609c0.6958008,1.5576172,2.0351563,2.7509766,3.6791992,3.2734375
		C30.777832,23.9121094,31.3793945,24,32,24c0.625,0,1.2236328-0.0888672,1.7817383-0.2636719
		c1.6464844-0.5244141,2.9897461-1.7167969,3.6845703-3.2724609C37.5439453,20.2900391,37.5161133,20.0878906,37.3950195,19.9414063
		z"/>
	<g>
		<path class="st4" d="M34,14.5c0-0.8300171-0.6699829-1.5-1.5-1.5h-1c-0.8300171,0-1.5,0.6699829-1.5,1.5
			c0,0.2799683-0.2199707,0.5-0.5,0.5H26v1h3.5c0.8300171,0,1.5-0.6700439,1.5-1.5c0-0.2800293,0.2199707-0.5,0.5-0.5h1
			c0.2800293,0,0.5,0.2199707,0.5,0.5c0,0.8299561,0.6699829,1.5,1.5,1.5H38v-1h-3.5C34.2199707,15,34,14.7799683,34,14.5z"/>
		<rect x="26" y="11" class="st4" width="12" height="1"/>
	</g>
</g>
<g id="_x32_1._hand_washing">
</g>
<g id="_x32_0._dna">
</g>
<g id="_x31_9._social_distancing">
</g>
<g id="_x31_8._hospital">
</g>
<g id="_x31_7._statistic">
</g>
<g id="_x31_6._no_flight">
</g>
<g id="_x31_5._china">
</g>
<g id="_x31_4._water_drop">
</g>
<g id="_x31_3._virus_scan">
</g>
<g id="_x31_2._water_tap">
</g>
<g id="_x31_1._soap">
</g>
<g id="_x31_0._bat">
</g>
<g id="_x39_._microscope">
</g>
<g id="_x38_._cough">
</g>
<g id="_x37_._medical_mask">
</g>
<g id="_x36_._coronavirus">
</g>
<g id="_x35_._world">
</g>
<g id="_x34_._shield">
</g>
<g id="_x33_._disinfectant">
</g>
<g id="_x32_._thermometer">
</g>
<g id="_x31_._protected">
</g>
</svg>
