<?xml version="1.0" encoding="UTF-8"?>
<svg xmlns="http://www.w3.org/2000/svg" version="1.1" viewBox="0 0 800 800">
  <defs>
    <style>
      .cls-1 {
        fill: #ff8d1e;
      }

      .cls-2 {
        fill: #231f20;
      }
    </style>
  </defs>
  <!-- Generator: Adobe Illustrator 28.6.0, SVG Export Plug-In . SVG Version: 1.2.0 Build 709)  -->
  <g>
    <g id="_x32_">
      <g>
        <path class="cls-1" d="M634.9,526h-9.9V0h-50v526.3c-28.3,1.7-39.1,21.3-39.1,39.3v18.6c-7.6-45.8-26.8-87.4-50.7-118.4,31.2-25,51.2-63.4,51.2-106.4,0-62.4-41.9-114.8-99-131.1v39.6c36,14.8,61.5,50.2,61.5,91.6s-25.4,76.7-61.5,91.5v76.2h41.5c7.2,15.2,12.9,31.3,16.8,47.8h-58.3v106.5h64.6v45.6h-64.6v73.1h102.1v-123.6c5.4,11,16.7,16.3,32.8,16.3h2.6v107.3h50v-107.3h.5c21.9,0,30-11.4,36.5-19.8,10.4-13.5,23.9-64.6,17.7-106.2-2.2-14.6-17.7-40.6-44.8-40.6ZM642.1,657.7l-.5.7c-5.3,7-7.1,9.3-16.1,9.3h-53.1c-11.5,0-11.5-1.6-11.5-8.3v-93.8c0-12.9,9.5-14.6,17.7-14.6h56.2c12,0,19.4,14.7,20.1,19.3,5.6,37.2-7.5,79.9-12.8,87.3Z"/>
        <rect x="750" width="50" height="800"/>
        <rect width="50" height="800"/>
        <path class="cls-1" d="M263.5,359.4c0,43.1,20,81.4,51.2,106.4-23.9,31.1-43,72.7-50.7,118.4v-18.6c0-17.9-10.7-37.6-39.1-39.3V0h-50v526h-9.9c-27.1,0-42.6,26-44.8,40.6-6.2,41.7,7.3,92.7,17.7,106.2,6.5,8.4,14.6,19.8,36.5,19.8h.5v107.3h50v-107.3h2.6c16.1,0,27.4-5.3,32.8-16.3v123.6h102.1v-73.1h-64.6v-45.6h64.6v-106.5h-58.3c3.9-16.5,9.6-32.7,16.8-47.8h41.5v-76.2c-36-14.8-61.5-50.2-61.5-91.5s25.4-76.7,61.5-91.6v-39.6c-57.1,16.3-99,68.8-99,131.2ZM239.1,659.3c0,6.7,0,8.3-11.5,8.3h-53.1c-8.9,0-10.7-2.3-16.1-9.3l-.5-.7c-5.3-7.4-18.4-50.1-12.8-87.3.7-4.7,8.1-19.3,20.1-19.3h56.2c8.3,0,17.7,1.7,17.7,14.6v93.8Z"/>
        <rect x="375" width="50" height="800"/>
        <rect class="cls-2" x="175" width="50" height="526.3"/>
        <rect class="cls-2" x="175" y="692.7" width="50" height="107.3"/>
        <rect class="cls-2" x="575" y="692.7" width="50" height="107.3"/>
        <rect class="cls-2" x="575" width="50" height="526.3"/>
      </g>
    </g>
  </g>
</svg>