<?xml version="1.0" encoding="UTF-8"?>
<svg xmlns="http://www.w3.org/2000/svg" version="1.1" viewBox="0 0 26 26">
  <defs>
    <style>
      .cls-1 {
        fill: #a1886c;
      }

      .cls-2 {
        fill: #54b60b;
      }
    </style>
  </defs>
  <!-- Generator: Adobe Illustrator 28.6.0, SVG Export Plug-In . SVG Version: 1.2.0 Build 709)  -->
  <g>
    <g id="Layer_1">
      <g id="a">
        <path class="cls-1" d="M11.7,17.6h2.4v4.3c-.4.2-.8.4-1.2.4-.4,0-.8-.2-1.2-.4v-4.3Z"/>
        <path class="cls-2" d="M13,9.8l3.8,6.4,2.1,2.1c-1.9.8-3.8,1.2-5.8,1.3-2,0-4-.5-5.8-1.3,0,0,.3,0,1.8-2.1,1.5-2.1,4.1-6.4,4.1-6.4Z"/>
        <path class="cls-2" d="M13,8.2s1.6,2.7,2.9,4.3c.6.8,1.4,1.6,2.2,2.2-1.7.6-3.4.9-5.2,1-1.8,0-3.5-.4-5.2-1,.8-.6,1.5-1.4,2.1-2.2,1.3-1.6,3.1-4.3,3.1-4.3Z"/>
        <path class="cls-2" d="M13.1,3.7c.3,1.3.8,2.5,1.3,3.7.5,1,1.2,1.9,2,2.8-1,.6-2.1.9-3.3,1-1.2,0-2.3-.4-3.3-1,.7-.8,1.4-1.8,1.9-2.8.6-1.2,1-2.4,1.4-3.7Z"/>
        <path class="cls-2" d="M26,26h0Z"/>
      </g>
    </g>
  </g>
</svg>