<?xml version="1.0" encoding="UTF-8" standalone="no"?>
<!DOCTYPE svg PUBLIC "-//W3C//DTD SVG 1.1//EN" "http://www.w3.org/Graphics/SVG/1.1/DTD/svg11.dtd">
<svg width="100%" height="100%" viewBox="0 0 32 32" version="1.1" xmlns="http://www.w3.org/2000/svg" xmlns:xlink="http://www.w3.org/1999/xlink" xml:space="preserve" xmlns:serif="http://www.serif.com/" style="fill-rule:evenodd;clip-rule:evenodd;stroke-linejoin:round;stroke-miterlimit:2;">
    <g transform="matrix(1.249486,0,0,1.249486,-3.054659,-1.805173)">
        <g id="Layer_1">
            <g id="Layer_1-2">
                <g id="a">
                    <g>
                        <path d="M4.524,14.65L13.534,19.852L13.534,15.05L4.524,9.848L4.524,14.65Z" style="fill:rgb(173,173,173);fill-rule:nonzero;"/>
                        <path d="M13.534,19.852L21.852,15.05L21.852,10.248L17.693,10.248L13.534,15.05L13.534,19.852Z" style="fill:rgb(219,219,219);fill-rule:nonzero;"/>
                    </g>
                    <path d="M14.921,19.052L14.921,15.844L20.465,12.649L20.465,15.851L14.921,19.052Z" style="fill:rgb(2,2,2);fill-rule:nonzero;"/>
                    <path d="M15.25,18.862L15.25,15.936L20.169,13.087L20.169,16.022L15.25,18.862Z" style="fill:rgb(78,78,78);fill-rule:nonzero;"/>
                </g>
                <g transform="matrix(0.780144,-0.450416,0.808824,0.466975,1.840249,1.430527)">
                    <rect x="-10.673" y="26.947" width="2.68" height="9.433" style="fill:rgb(206,107,107);"/>
                </g>
                <g transform="matrix(1,0,0,1,0,-0.309546)">
                    <g transform="matrix(0.854176,0.493159,-0,0.924141,-1.257995,-0.693038)">
                        <path d="M26.241,5.196L23.802,7.794L22.988,7.794L22.988,7.603L26.241,5.008L26.241,5.196Z" style="fill:rgb(97,84,76);"/>
                    </g>
                    <g transform="matrix(0.854176,0.493159,-0,0.924141,4.306719,2.519751)">
                        <path d="M26.241,5.196L23.802,7.794L22.988,7.794L22.988,7.603L26.241,5.008L26.241,5.196Z" style="fill:rgb(97,84,76);"/>
                    </g>
                    <g transform="matrix(0.854176,0.493159,-0,0.924141,2.915954,1.710897)">
                        <path d="M26.241,5.196L23.802,7.794L22.988,7.794L22.988,7.603L26.241,5.008L26.241,5.196Z" style="fill:rgb(97,84,76);"/>
                    </g>
                    <g transform="matrix(0.854176,0.493159,-0,0.924141,1.516469,0.908799)">
                        <path d="M26.241,5.196L23.802,7.794L22.988,7.794L22.988,7.603L26.241,5.008L26.241,5.196Z" style="fill:rgb(97,84,76);"/>
                    </g>
                    <g transform="matrix(0.854176,0.493159,-0,0.924141,0.137406,0.112597)">
                        <path d="M26.241,5.196L23.802,7.794L22.988,7.794L22.988,7.603L26.241,5.008L26.241,5.196Z" style="fill:rgb(97,84,76);"/>
                    </g>
                    <g transform="matrix(0.693105,-0.400165,0.800329,0.46207,2.444733,1.26847)">
                        <rect x="-9" y="27.703" width="3" height="0.876" style="fill:rgb(152,126,97);"/>
                    </g>
                    <g transform="matrix(0.693105,-0.400165,0.800329,0.46207,2.444733,1.26847)">
                        <rect x="-8.994" y="29.435" width="2.994" height="0.876" style="fill:rgb(152,126,97);"/>
                    </g>
                    <g transform="matrix(0.693105,-0.400165,0.800329,0.46207,2.444733,1.26847)">
                        <rect x="-8.994" y="31.177" width="2.994" height="0.866" style="fill:rgb(152,126,97);"/>
                    </g>
                    <g transform="matrix(0.693105,-0.400165,0.800329,0.46207,2.444733,1.26847)">
                        <rect x="-8.994" y="32.909" width="2.994" height="0.866" style="fill:rgb(152,126,97);"/>
                    </g>
                    <g transform="matrix(0.693105,-0.400165,0.800329,0.46207,2.444733,1.26847)">
                        <rect x="-9" y="34.644" width="3" height="0.863" style="fill:rgb(152,126,97);"/>
                    </g>
                    <g transform="matrix(0.693105,-0.400165,0.800329,0.46207,2.227044,1.570415)">
                        <rect x="-8" y="26.853" width="0.496" height="9.52" style="fill:rgb(216,213,213);"/>
                    </g>
                    <g transform="matrix(0.693105,0.400165,-0,0.96132,2.227044,1.300892)">
                        <rect x="23.007" y="6.941" width="10.993" height="0.309" style="fill:rgb(157,157,157);"/>
                    </g>
                    <g transform="matrix(0.693105,-0.400165,0,0.924141,2.227044,1.570415)">
                        <rect x="34" y="36.373" width="0.496" height="0.321" style="fill:rgb(186,186,186);"/>
                    </g>
                    <g transform="matrix(0.693105,-0.400165,0.800329,0.46207,3.589361,0.783881)">
                        <rect x="-8" y="26.853" width="0.496" height="9.52" style="fill:rgb(216,213,213);"/>
                    </g>
                    <g transform="matrix(0.693105,0.400165,-0,0.96132,3.589361,0.514358)">
                        <rect x="23.007" y="6.941" width="10.993" height="0.309" style="fill:rgb(157,157,157);"/>
                    </g>
                    <g transform="matrix(0.693105,-0.400165,0,0.924141,3.589361,0.783881)">
                        <rect x="34" y="36.373" width="0.496" height="0.321" style="fill:rgb(186,186,186);"/>
                    </g>
                </g>
            </g>
            <g transform="matrix(1,0,0,1,-0.991136,0.565893)">
                <path d="M24.224,22.484L16.6,18.082L17,17.851L24.63,22.256L24.224,22.484Z" style="fill:rgb(255,244,142);fill-rule:nonzero;"/>
            </g>
            <g transform="matrix(1,0,0,1,0.094066,-0.060649)">
                <path d="M24.224,22.484L16.6,18.082L17,17.851L24.63,22.256L24.224,22.484Z" style="fill:rgb(255,244,142);fill-rule:nonzero;"/>
            </g>
        </g>
        <g transform="matrix(0.34793,-0.200877,0.800329,0.46207,-0.661847,3.238317)">
            <path d="M8.976,7.794L8.976,19.053L-9.827,21.77L-9.827,10.512L8.976,7.794Z" style="fill:rgb(65,59,107);"/>
        </g>
        <g transform="matrix(0.693105,-0.400165,0.800329,0.46207,2.444733,1.444733)">
            <path d="M3.219,10.582L3.219,21.84L0,19.053L0,7.794L3.219,10.582Z" style="fill:rgb(0,25,97);"/>
        </g>
    </g>
</svg>
