<?xml version="1.0" encoding="UTF-8" standalone="no"?>
<!DOCTYPE svg PUBLIC "-//W3C//DTD SVG 1.1//EN" "http://www.w3.org/Graphics/SVG/1.1/DTD/svg11.dtd">
<svg width="100%" height="100%" viewBox="0 0 64 64" version="1.1" xmlns="http://www.w3.org/2000/svg" xmlns:xlink="http://www.w3.org/1999/xlink" xml:space="preserve" xmlns:serif="http://www.serif.com/" style="fill-rule:evenodd;clip-rule:evenodd;stroke-linejoin:round;stroke-miterlimit:2;">
    <g transform="matrix(0.338291,0.195312,0,0.390625,34.641016,30.037378)">
        <g transform="matrix(1,0,0,1,-61.44,-61.44)">
            <g>
                <clipPath id="_clip1">
                    <rect x="0" y="0" width="122.88" height="122.88"/>
                </clipPath>
                <g clip-path="url(#_clip1)">
                    <path d="M61.44,0L61.458,-0C95.174,-0 122.918,27.744 122.918,61.46C122.918,95.176 95.174,122.92 61.458,122.92C27.742,122.92 -0.002,95.176 -0.002,61.46C-0.002,45.165 6.478,29.522 18,18C29.501,6.46 45.147,-0.023 61.44,-0Z" style="fill:rgb(93,93,93);fill-rule:nonzero;"/>
                    <path d="M61.44,6.67C91.486,6.67 116.21,31.394 116.21,61.44C116.21,91.486 91.486,116.21 61.44,116.21C31.394,116.21 6.67,91.486 6.67,61.44C6.67,31.394 31.394,6.67 61.44,6.67Z" style="fill:rgb(93,93,93);"/>
                    <path d="M61.5,53.07C66.391,53.097 70.4,57.129 70.4,62.02C70.4,66.93 66.36,70.97 61.45,70.97C56.54,70.97 52.5,66.93 52.5,62.02L52.5,62.01C52.505,57.104 56.544,53.07 61.45,53.07L61.5,53.07Z" style="fill:rgb(93,93,93);"/>
                    <path d="M15.17,61.89C16,44.64 23.59,31.13 38.4,21.68L54.68,50.34C50.83,52.5 48.59,56.34 48,61.89L15.17,61.89Z" style="fill:rgb(93,93,93);"/>
                    <path d="M84.63,21.46C99.13,30.84 107.05,44.13 107.83,61.69L74.83,61.45C74.83,57.04 72.68,53.18 68.17,49.9L84.63,21.46Z" style="fill:rgb(93,93,93);"/>
                    <path d="M84.87,101.71C69.51,109.59 54.03,109.8 38.44,101.71L55.12,73.27C58.91,75.52 63.36,75.54 68.46,73.27L84.87,101.7L84.87,101.71Z" style="fill:rgb(93,93,93);"/>
                </g>
            </g>
        </g>
    </g>
    <g transform="matrix(0.866025,-0.5,0,1.154701,0,0)">
        <path d="M22.915,13.948L57.144,72.696L53.144,72.696L18.915,13.948L22.915,13.948Z" style="fill:rgb(93,93,93);"/>
    </g>
    <g transform="matrix(0.338291,0.195312,0,0.390625,31.176915,32.037378)">
        <g transform="matrix(1,0,0,1,-61.44,-61.44)">
            <g>
                <clipPath id="_clip2">
                    <rect x="0" y="0" width="122.88" height="122.88"/>
                </clipPath>
                <g clip-path="url(#_clip2)">
                    <path d="M61.44,0L61.458,-0C95.174,-0 122.918,27.744 122.918,61.46C122.918,95.176 95.174,122.92 61.458,122.92C27.742,122.92 -0.002,95.176 -0.002,61.46C-0.002,45.165 6.478,29.522 18,18C29.501,6.46 45.147,-0.023 61.44,-0Z" style="fill-rule:nonzero;"/>
                    <path d="M61.44,6.67C91.486,6.67 116.21,31.394 116.21,61.44C116.21,91.486 91.486,116.21 61.44,116.21C31.394,116.21 6.67,91.486 6.67,61.44C6.67,31.394 31.394,6.67 61.44,6.67Z" style="fill:rgb(255,201,3);"/>
                    <path d="M61.5,53.07C66.391,53.097 70.4,57.129 70.4,62.02C70.4,66.93 66.36,70.97 61.45,70.97C56.54,70.97 52.5,66.93 52.5,62.02L52.5,62.01C52.505,57.104 56.544,53.07 61.45,53.07L61.5,53.07Z"/>
                    <path d="M15.17,61.89C16,44.64 23.59,31.13 38.4,21.68L54.68,50.34C50.83,52.5 48.59,56.34 48,61.89L15.17,61.89Z"/>
                    <path d="M84.63,21.46C99.13,30.84 107.05,44.13 107.83,61.69L74.83,61.45C74.83,57.04 72.68,53.18 68.17,49.9L84.63,21.46Z"/>
                    <path d="M84.87,101.71C69.51,109.59 54.03,109.8 38.44,101.71L55.12,73.27C58.91,75.52 63.36,75.54 68.46,73.27L84.87,101.7L84.87,101.71Z"/>
                </g>
            </g>
        </g>
    </g>
</svg>
