<?xml version="1.0" encoding="UTF-8" standalone="no"?>
<!DOCTYPE svg PUBLIC "-//W3C//DTD SVG 1.1//EN" "http://www.w3.org/Graphics/SVG/1.1/DTD/svg11.dtd">
<svg width="100%" height="100%" viewBox="0 0 800 800" version="1.1" xmlns="http://www.w3.org/2000/svg" xmlns:xlink="http://www.w3.org/1999/xlink" xml:space="preserve" xmlns:serif="http://www.serif.com/" style="fill-rule:evenodd;clip-rule:evenodd;stroke-linejoin:round;stroke-miterlimit:2;">
    <g transform="matrix(1,0,0,1,-32.571398,-6.254052)">
        <g transform="matrix(0.866025,-0.5,1,0.57735,0,0)">
            <rect x="-419.46" y="590.529" width="12.088" height="9.265" style="fill:rgb(27,67,108);"/>
        </g>
        <g transform="matrix(0.866025,-0.5,0.993689,0.573707,5.339951,3.083022)">
            <rect x="-412.35" y="588.905" width="120.542" height="257.238" style="fill:rgb(27,67,108);"/>
        </g>
        <g transform="matrix(0.866025,-0.5,1,0.57735,-0,-0)">
            <rect x="-306.267" y="542.97" width="116.691" height="211.302" style="fill:rgb(196,196,196);"/>
        </g>
        <g transform="matrix(0.866025,-0.5,0,1.154701,0,0)">
            <rect x="490.433" y="745.089" width="74.267" height="36.744" style="fill:rgb(0,59,118);"/>
        </g>
        <g transform="matrix(0.866025,-0.5,1,0.57735,0,0)">
            <rect x="-369.917" y="634.84" width="63.65" height="110.248" style="fill:rgb(173,132,18);"/>
        </g>
        <g transform="matrix(0.761933,-0.439902,0,1.214314,22.382382,-123.416454)">
            <rect x="511.653" y="552.158" width="63.65" height="91.869" style="fill:rgb(0,87,175);"/>
        </g>
        <g transform="matrix(0.866025,-0.5,0,0.989754,0,88.089288)">
            <rect x="504" y="437.163" width="84" height="96.883" style="fill:rgb(9,75,141);"/>
        </g>
        <g transform="matrix(0.866025,-0.5,1,0.57735,0,0)">
            <path d="M51.853,437.163L-29.463,607.485C-29.463,621.852 -29.625,620.36 -57.463,621.625C-86.21,621.625 -86.124,621.562 -86.124,607.485L-4.808,437.163L51.853,437.163Z" style="fill:rgb(64,137,212);"/>
        </g>
        <g transform="matrix(0.888253,-0.512833,1,0.57735,-3.095771,1.787344)">
            <path d="M139.276,339.482L84.677,451.003L30.785,451.003L85.383,339.482L139.276,339.482Z" style="fill:rgb(38,104,170);"/>
        </g>
        <g transform="matrix(4.872814,-2.813321,6.496169,11.251695,169.338353,239.452276)">
            <path d="M56.829,5.172L56.829,10.829L51.172,10.829L49.288,8L51.172,5.172L56.829,5.172Z" style="fill:rgb(92,97,100);"/>
        </g>
        <g transform="matrix(6.496169,-3.750565,6.496169,11.251695,95.458834,312.112218)">
            <rect x="55.001" y="0.343" width="2" height="11.314" style="fill:rgb(58,66,73);"/>
        </g>
        <g transform="matrix(3.031089,1.75,-0,11.288426,260.673647,-92.864348)">
            <rect x="34" y="29" width="16" height="10" style="fill:rgb(66,97,178);"/>
        </g>
        <g transform="matrix(9.187059,5.304151,-0,10.608302,-16.251209,-191.097351)">
            <rect x="32" y="46" width="23" height="2" style="fill:rgb(58,66,73);"/>
        </g>
        <g transform="matrix(9.187059,5.304151,-0,10.608302,-16.251209,-191.097351)">
            <rect x="36" y="52" width="12" height="4" style="fill:rgb(239,188,46);"/>
        </g>
        <g transform="matrix(0.866025,-0.5,0,1.154701,0,0)">
            <path d="M657.062,322.483L741.93,469.478L625.239,469.478L540.371,322.483L657.062,322.483Z" style="fill:rgb(144,150,156);"/>
        </g>
        <g transform="matrix(0.838191,-0.48393,1,0.57735,-3.117435,1.799852)">
            <rect x="-112" y="582.161" width="115.719" height="50.648" style="fill:rgb(110,159,210);"/>
        </g>
        <g transform="matrix(9.187059,5.304151,-0,10.608302,-16.251209,-191.097351)">
            <path d="M38.721,27.779L38.721,19.769L46.639,9.211L53.499,14.49L49.279,18.745L49.325,27.641L38.721,27.779Z" style="fill:rgb(179,217,255);fill-rule:nonzero;"/>
        </g>
        <g transform="matrix(0.752781,-0.434618,0,1.162766,79.948827,-53.624335)">
            <path d="M734.424,634.84L734.424,914.454C734.424,920.646 728.601,925.673 721.427,925.673L604.457,925.673L604.457,634.84L734.424,634.84Z" style="fill:rgb(63,158,255);"/>
        </g>
        <g transform="matrix(0.866025,-0.5,0,1.154701,-0,0)">
            <rect x="607.125" y="903.924" width="16.43" height="21.748" style="fill:rgb(63,158,255);"/>
        </g>
        <g transform="matrix(9.187059,5.304151,0,10.608302,-16.251209,-191.097351)">
            <path d="M54.558,27.687L60,27.687L60,58C60,60.209 58.209,62 56,62L26,62L26,58C26,56.896 26.896,56 28,56L54.558,56L54.558,27.687Z" style="fill:rgb(66,97,178);fill-rule:nonzero;"/>
        </g>
        <g transform="matrix(9.187059,5.304151,-0,10.608302,-3.440567,-198.493579)">
            <path d="M62,37C62,39.209 60.209,41 58,41C55.791,41 54,39.209 54,37C54,34.791 55.791,33 58,33C60.209,33 62,34.791 62,37Z" style="fill:rgb(140,103,0);fill-rule:nonzero;"/>
        </g>
        <g transform="matrix(9.187059,5.304151,-0,10.608302,-16.251209,-191.097351)">
            <path d="M62,37C62,39.209 60.209,41 58,41C55.791,41 54,39.209 54,37C54,34.791 55.791,33 58,33C60.209,33 62,34.791 62,37Z" style="fill:rgb(239,188,46);fill-rule:nonzero;"/>
        </g>
        <g transform="matrix(9.187059,5.304151,-0,10.608302,-16.251209,-191.097351)">
            <path d="M60,37C60,38.104 59.105,39 58,39C56.896,39 56,38.105 56,37C56,35.896 56.895,35 58,35C59.105,35 60,35.896 60,37Z" style="fill:rgb(239,148,29);fill-rule:nonzero;"/>
        </g>
    </g>
</svg>
