<?xml version="1.0" encoding="UTF-8" standalone="no"?>
<!DOCTYPE svg PUBLIC "-//W3C//DTD SVG 1.1//EN" "http://www.w3.org/Graphics/SVG/1.1/DTD/svg11.dtd">
<svg width="100%" height="100%" viewBox="0 0 800 800" version="1.1" xmlns="http://www.w3.org/2000/svg" xmlns:xlink="http://www.w3.org/1999/xlink" xml:space="preserve" xmlns:serif="http://www.serif.com/" style="fill-rule:evenodd;clip-rule:evenodd;stroke-linejoin:round;stroke-miterlimit:2;">
    <g transform="matrix(0.967235,0,0,0.967639,19.608206,12.194129)">
        <g id="Path_3680" transform="matrix(16.770612,0,0,16.770612,-492.446756,41.627846)">
            <path d="M49.4,9.091C49.477,8 49.837,6.947 50.443,6.037C51.321,4.363 54.21,2.8 54.959,2.937C55.095,2.961 54.559,3.511 54.185,4.477C53.847,5.172 53.728,5.955 53.845,6.719C53.909,7.041 54.183,6.132 55.645,5.057C56.781,4.223 61.118,5.151 61.036,5.405C60.404,5.449 59.769,5.458 59.136,5.434C58.131,5.606 57.263,6.243 56.8,7.152C57.635,6.635 58.635,6.451 59.6,6.636C60.588,7.057 60.572,8.199 62.539,8.418C63.669,8.504 64.802,8.298 65.829,7.818C65.74,8.565 65.44,9.271 64.966,9.855C64.32,10.356 63.517,10.614 62.7,10.583C62.54,10.599 62.379,10.605 62.218,10.601C66.418,13.304 68.964,17.968 68.964,22.963C68.964,31.027 62.328,37.663 54.264,37.663C46.2,37.663 39.564,31.027 39.564,22.963C39.564,16.735 43.522,11.152 49.4,9.091Z" style="fill:rgb(77,202,244);"/>
        </g>
        <g id="Ellipse_916" transform="matrix(16.770612,0,0,16.770612,403.552872,387.169527)">
            <g id="Group_2731">
                <ellipse id="Ellipse_9161" serif:id="Ellipse_916" cx="0.837" cy="2.189" rx="0.837" ry="2.189" style="fill:rgb(3,42,63);"/>
            </g>
        </g>
        <g id="Ellipse_917" transform="matrix(16.770612,0,0,16.770612,185.404594,387.169527)">
            <g id="Group_2732">
                <ellipse id="Ellipse_9171" serif:id="Ellipse_917" cx="0.876" cy="2.19" rx="0.876" ry="2.19" style="fill:rgb(3,42,63);"/>
            </g>
        </g>
        <g id="Path_3681" transform="matrix(16.770612,0,0,16.770612,-492.446756,41.627846)">
            <path d="M38.765,27.834L46.434,24.161L50.156,27.417C50.156,27.417 38.686,27.834 38.765,27.834Z" style="fill:rgb(216,240,250);"/>
        </g>
        <g id="Path_3682" transform="matrix(16.770612,0,0,16.770612,-492.446756,41.627846)">
            <path d="M50.156,27.416C50.14,27.367 46.779,31.365 46.779,31.365L39.092,27.833C39.092,27.833 50.181,27.493 50.156,27.416Z" style="fill:rgb(22,102,127);"/>
        </g>
        <g id="Path_3684" transform="matrix(16.770612,0,0,16.770612,1635.34136,-11774.542584)">
            <path d="M-82.735,738.331C-82.735,738.331 -75.246,740.431 -70.268,737.622C-65.29,734.813 -63.978,733.753 -61.519,728.376C-59.06,722.999 -62.219,717.107 -62.219,717.107C-62.219,717.107 -52.51,727.72 -62.219,737.977C-71.928,748.234 -82.735,738.331 -82.735,738.331Z" style="fill:rgb(19,176,229);fill-rule:nonzero;"/>
        </g>
        <g id="Path_3685" transform="matrix(16.770612,0,0,16.770612,1635.34136,-11774.542584)">
            <path d="M-75.193,714.423C-75.073,713.565 -74.706,712.761 -74.137,712.108C-73.27,711.265 -71.12,711.557 -71.12,711.557C-71.12,711.557 -73.196,713.257 -72.38,713.616C-71.564,713.975 -70.457,712.155 -68.458,712.507C-66.459,712.859 -64.385,715.026 -64.385,715.026C-65.657,715.733 -67.031,716.239 -68.458,716.526C-70.306,716.777 -70.04,716.652 -71.724,716.126C-72.943,715.697 -74.108,715.126 -75.193,714.423Z" style="fill:rgb(19,176,229);fill-rule:nonzero;"/>
        </g>
    </g>
    <g transform="matrix(1,0,0,1,17.110891,59.233388)">
        <g transform="matrix(2.201276,0,0,1.65686,-159.126206,-77.541025)">
            <ellipse cx="254.001" cy="152" rx="154.8" ry="48" style="fill:rgb(43,59,78);"/>
        </g>
        <g transform="matrix(1,0,0,1,-17.110891,-59.233388)">
            <path d="M357.234,59.233L477.864,59.233L477.864,67.65L357.305,67.65L357.234,59.233Z" style="fill:rgb(0,97,178);"/>
        </g>
        <g transform="matrix(2.201276,0,0,1.65686,-159.126206,-77.541025)">
            <path d="M340,150.4C340.8,137.2 339.2,122.8 335.6,108.8C326,71.2 302.8,46.8 281.6,46.8C278,46.8 274.996,48.648 271.6,48.8C264.133,49.133 244.267,49.133 236.8,48.8C233.404,48.648 230,46.8 226.8,46.8C205.6,46.8 182.4,71.2 172.8,108.8C169.2,122.8 168,137.2 168.4,150.4C168.4,150.4 168.213,161.505 254.001,161.505C339.789,161.505 340,150.4 340,150.4Z" style="fill:rgb(50,74,94);fill-rule:nonzero;"/>
        </g>
        <g transform="matrix(2.875414,0,0,2.875414,-427.542403,-249.436111)">
            <path d="M173.601,190C173.201,190 173.201,190 173.601,190Z" style="fill:rgb(50,74,94);fill-rule:nonzero;"/>
        </g>
        <g transform="matrix(2.801909,0,0,2.701925,-429.776535,-213.032063)">
            <path d="M252.001,198.8C254.801,217.2 271.201,231.2 290.801,231.2C310.401,231.2 326.801,217.2 329.601,198.8L252.001,198.8Z" style="fill:rgb(0,60,109);fill-rule:nonzero;"/>
        </g>
        <g transform="matrix(2.801909,0,0,2.701925,-430.897298,-213.032063)">
            <path d="M174.801,198.8C177.601,217.2 194.001,231.2 213.601,231.2C233.201,231.2 249.601,217.2 252.401,198.8L174.801,198.8Z" style="fill:rgb(0,60,109);fill-rule:nonzero;"/>
        </g>
        <g transform="matrix(1,0,0,1.930813,0,-710.502097)">
            <ellipse cx="92.733" cy="671.688" rx="67.712" ry="27.989" style="fill:rgb(96,96,96);"/>
        </g>
        <g transform="matrix(1,0,0,1,0,-59.233388)">
            <rect x="25.336" y="552.136" width="135.11" height="93.5" style="fill:rgb(96,96,96);"/>
        </g>
        <g transform="matrix(1,0,0,1,0,-59.233388)">
            <path d="M92.733,699.677L146.842,678.125C146.842,678.125 158.015,666.482 168.063,652.777C174.668,643.767 179.795,633.469 184.437,626.403C196.346,608.27 208.478,583.384 218.297,569.332C225.364,559.218 243.352,542.087 243.352,542.087L218.387,530.186C218.387,530.186 205.392,538.74 200.85,544.86C196.927,550.145 184.315,566.335 179.089,573.361C175.768,577.824 171.437,582.76 169.489,587.014C167.816,590.667 168.029,594.917 167.401,598.885C166.479,604.705 163.96,621.932 163.96,621.932L160.446,621.932L92.733,699.677Z" style="fill:rgb(96,96,96);"/>
        </g>
        <g transform="matrix(1,0,0,8.195122,0,-4023.080016)">
            <ellipse cx="92.733" cy="550.781" rx="67.712" ry="2.866" style="fill:rgb(96,96,96);"/>
        </g>
        <g transform="matrix(1,0,0,1,1.5823,-58.578028)">
            <ellipse cx="91.151" cy="551.48" rx="47.815" ry="9.297" style="fill:rgb(235,235,235);"/>
        </g>
    </g>
</svg>
