<?xml version="1.0" encoding="UTF-8" standalone="no"?>
<!DOCTYPE svg PUBLIC "-//W3C//DTD SVG 1.1//EN" "http://www.w3.org/Graphics/SVG/1.1/DTD/svg11.dtd">
<svg width="100%" height="100%" viewBox="0 0 800 800" version="1.1" xmlns="http://www.w3.org/2000/svg" xmlns:xlink="http://www.w3.org/1999/xlink" xml:space="preserve" xmlns:serif="http://www.serif.com/" style="fill-rule:evenodd;clip-rule:evenodd;stroke-linejoin:round;stroke-miterlimit:2;">
    <g transform="matrix(1.128343,0.651449,-0,1.504457,-36.837077,-204.565168)">
        <path d="M595.276,128.881L595.276,288.448C595.276,332.482 559.526,368.231 515.492,368.231L306.555,368.231C262.521,368.231 226.772,332.482 226.772,288.448L226.772,128.881C226.772,84.847 262.521,49.098 306.555,49.098L515.492,49.098C559.526,49.098 595.276,84.847 595.276,128.881Z" style="fill:rgb(184,130,0);"/>
    </g>
    <g transform="matrix(1.389643,-0.802311,0,0.514643,-428.731691,800.420947)">
        <path d="M765.354,805.199L765.354,865.892C765.354,908.524 755.741,943.137 743.899,943.137L708.661,943.137L708.661,805.199L765.354,805.199Z" style="fill:rgb(184,130,0);"/>
    </g>
    <g transform="matrix(1.312441,-0.757738,0.878765,0.507355,-30.509998,87.744804)">
        <path d="M141.732,166.932L85.039,166.932L85.039,137.008L124.381,137.008C133.957,137.008 141.732,150.416 141.732,166.932Z" style="fill:rgb(184,130,0);"/>
    </g>
    <g transform="matrix(1.128343,0.651449,-0,1.504457,-80.605376,-179.295529)">
        <path d="M595.276,128.881L595.276,288.448C595.276,332.482 559.526,368.231 515.492,368.231L306.555,368.231C262.521,368.231 226.772,332.482 226.772,288.448L226.772,128.881C226.772,84.847 262.521,49.098 306.555,49.098L515.492,49.098C559.526,49.098 595.276,84.847 595.276,128.881Z" style="fill:rgb(255,184,14);"/>
    </g>
    <g transform="matrix(22.170944,0,0,22.170944,45.050052,114.189581)">
        <g id="Police-2" transform="matrix(2.109328,0,0,2.109328,5.49007,2.591505)">
            <g id="Group_2377">
            </g>
            <g transform="matrix(0.056558,0.032654,-0,0.075411,-19.586696,-25.046618)">
                <path d="M422.362,152.202L435.896,193.273L483.734,182.888L449.431,213.574L483.734,244.26L435.896,233.875L422.362,274.946L408.828,233.875L360.99,244.26L395.294,213.574L360.99,182.888L408.828,193.273L422.362,152.202Z" style="fill:white;"/>
            </g>
            <g id="Ellipse_656" transform="matrix(1,0,0,1,3.170296,3.405627)">
                <path d="M1.218,0.419C1.365,0.479 1.5,0.563 1.618,0.669C1.739,0.777 1.844,0.902 1.93,1.04C2.016,1.177 2.081,1.326 2.124,1.482C2.166,1.633 2.182,1.79 2.171,1.946C2.162,2.086 2.122,2.223 2.054,2.346C1.992,2.451 1.905,2.538 1.8,2.6C1.694,2.662 1.573,2.697 1.45,2.7C1.309,2.704 1.168,2.678 1.038,2.623C0.891,2.563 0.756,2.479 0.638,2.373C0.398,2.156 0.224,1.874 0.138,1.562C0.096,1.412 0.08,1.255 0.091,1.099C0.1,0.959 0.139,0.822 0.207,0.699C0.268,0.596 0.353,0.509 0.456,0.447C0.562,0.385 0.683,0.35 0.806,0.347C0.947,0.341 1.087,0.366 1.218,0.419Z" style="fill:rgb(148,91,34);fill-rule:nonzero;"/>
            </g>
        </g>
    </g>
</svg>
