<?xml version="1.0" encoding="UTF-8" standalone="no"?>
<!DOCTYPE svg PUBLIC "-//W3C//DTD SVG 1.1//EN" "http://www.w3.org/Graphics/SVG/1.1/DTD/svg11.dtd">
<svg width="100%" height="100%" viewBox="0 0 800 800" version="1.1" xmlns="http://www.w3.org/2000/svg" xmlns:xlink="http://www.w3.org/1999/xlink" xml:space="preserve" xmlns:serif="http://www.serif.com/" style="fill-rule:evenodd;clip-rule:evenodd;stroke-linejoin:round;stroke-miterlimit:2;">
    <g transform="matrix(1,0,0,1,-28.731175,-27.5)">
        <g id="Path_3767" transform="matrix(33.774674,0,0,33.774674,-5615.871557,34329.259743)">
            <path d="M169.608,-1001.468L179.865,-995.547L188.326,-1000.432L178.07,-1006.332L169.608,-1001.468Z" style="fill:rgb(127,131,135);fill-rule:nonzero;"/>
        </g>
        <g id="Path_3763" transform="matrix(33.774674,0,0,33.774674,-5601.179574,34327.970845)">
            <path d="M169.173,-1000.565L179.43,-994.62L179.43,-995.508L169.173,-1001.43L169.173,-1000.565Z" style="fill:rgb(255,158,0);fill-rule:nonzero;"/>
        </g>
        <g id="Path_3764" transform="matrix(33.774674,0,0,33.774674,-5601.179574,34327.970845)">
            <path d="M179.43,-995.508L187.891,-1000.394L187.891,-999.505L179.43,-994.62L179.43,-995.508Z" style="fill:rgb(165,102,0);fill-rule:nonzero;"/>
        </g>
        <g transform="matrix(0.789611,0.455882,-0,1.154701,40.499423,23.382353)">
            <path d="M530,281.533L530,290.342C530,292.773 527.835,294.747 525.169,294.747L194.831,294.747C192.165,294.747 190,292.773 190,290.342L190,281.533C190,279.102 192.165,277.128 194.831,277.128L525.169,277.128C527.835,277.128 530,279.102 530,281.533Z" style="fill:rgb(69,69,69);"/>
        </g>
        <g id="Path_3771" transform="matrix(8.660254,0,0,33.774674,452.844684,537.899349)">
            <path d="M-0.29,-1.294L1.71,-1.294L1.71,3.475C1.71,3.697 1.259,3.697 0.71,3.697C0.161,3.697 -0.29,3.697 -0.29,3.475L-0.29,-1.294Z" style="fill:rgb(60,60,60);fill-rule:nonzero;"/>
        </g>
        <g id="Path_37711" serif:id="Path_3771" transform="matrix(8.660254,0,0,33.774674,400.883159,507.899349)">
            <path d="M-0.29,-1.294L1.71,-1.294L1.71,3.475C1.71,3.697 1.259,3.697 0.71,3.697C0.161,3.697 -0.29,3.697 -0.29,3.475L-0.29,-1.294Z" style="fill:rgb(60,60,60);fill-rule:nonzero;"/>
        </g>
        <g id="Path_37712" serif:id="Path_3771" transform="matrix(8.660254,0,0,33.774674,348.921635,477.899349)">
            <path d="M-0.29,-1.294L1.71,-1.294L1.71,3.475C1.71,3.697 1.259,3.697 0.71,3.697C0.161,3.697 -0.29,3.697 -0.29,3.475L-0.29,-1.294Z" style="fill:rgb(60,60,60);fill-rule:nonzero;"/>
        </g>
        <g id="Path_37713" serif:id="Path_3771" transform="matrix(8.660254,0,0,33.774674,296.960111,447.899349)">
            <path d="M-0.29,-1.294L1.71,-1.294L1.71,3.475C1.71,3.697 1.259,3.697 0.71,3.697C0.161,3.697 -0.29,3.697 -0.29,3.475L-0.29,-1.294Z" style="fill:rgb(60,60,60);fill-rule:nonzero;"/>
        </g>
        <g transform="matrix(0.866025,0.5,-0,1.154701,-25.980762,15.910996)">
            <path d="M810,38.971L810,47.631C810,50.021 808.06,51.962 805.67,51.962L714.33,51.962C711.94,51.962 710,50.021 710,47.631L710,38.971C710,36.581 711.94,34.641 714.33,34.641L805.67,34.641C808.06,34.641 810,36.581 810,38.971Z" style="fill:rgb(69,69,69);"/>
        </g>
        <g transform="matrix(0.773237,-0.446429,0,1.154701,49.177871,-28.392857)">
            <path d="M810,740.526L810,749.336C810,751.767 807.789,753.741 805.067,753.741L534.933,753.741C532.211,753.741 530,751.767 530,749.336L530,740.526C530,738.095 532.211,736.122 534.933,736.122L805.067,736.122C807.789,736.122 810,738.095 810,740.526Z" style="fill:rgb(69,69,69);"/>
        </g>
        <g id="Path_37714" serif:id="Path_3771" transform="matrix(8.660254,0,0,33.774674,452.844684,537.899349)">
            <path d="M1.71,3.475C1.71,3.697 1.259,3.697 0.71,3.697C0.161,3.697 -0.29,3.697 -0.29,3.475L-0.29,-1.294L1.71,-1.294" style="fill:rgb(60,60,60);fill-rule:nonzero;"/>
        </g>
        <g id="Path_37715" serif:id="Path_3771" transform="matrix(8.660254,0,0,33.774674,660.690781,417.899349)">
            <path d="M-0.29,-1.294L1.71,-1.294L1.71,3.475C1.71,3.697 1.259,3.697 0.71,3.697C0.161,3.697 -0.29,3.697 -0.29,3.475L-0.29,-1.294Z" style="fill:rgb(60,60,60);fill-rule:nonzero;"/>
        </g>
        <g id="Path_37716" serif:id="Path_3771" transform="matrix(8.660254,0,0,33.774674,619.082649,441.925462)">
            <path d="M-0.29,-1.294L1.71,-1.294L1.71,3.475C1.71,3.697 1.259,3.697 0.71,3.697C0.161,3.697 -0.29,3.697 -0.29,3.475L-0.29,-1.294Z" style="fill:rgb(60,60,60);fill-rule:nonzero;"/>
        </g>
        <g id="Path_37717" serif:id="Path_3771" transform="matrix(8.660254,0,0,33.774674,577.522649,465.925462)">
            <path d="M-0.29,-1.294L1.71,-1.294L1.71,3.475C1.71,3.697 1.259,3.697 0.71,3.697C0.161,3.697 -0.29,3.697 -0.29,3.475L-0.29,-1.294Z" style="fill:rgb(60,60,60);fill-rule:nonzero;"/>
        </g>
        <g id="Path_37718" serif:id="Path_3771" transform="matrix(8.660254,0,0,33.774674,494.402649,513.925462)">
            <path d="M-0.29,-1.294L1.71,-1.294L1.71,3.475C1.71,3.697 1.259,3.697 0.71,3.697C0.161,3.697 -0.29,3.697 -0.29,3.475L-0.29,-1.294Z" style="fill:rgb(60,60,60);fill-rule:nonzero;"/>
        </g>
        <g id="Path_37719" serif:id="Path_3771" transform="matrix(8.660254,0,0,33.774674,535.962649,489.925462)">
            <path d="M-0.29,-1.294L1.71,-1.294L1.71,3.475C1.71,3.697 1.259,3.697 0.71,3.697C0.161,3.697 -0.29,3.697 -0.29,3.475L-0.29,-1.294Z" style="fill:rgb(60,60,60);fill-rule:nonzero;"/>
        </g>
        <g transform="matrix(0.866025,-0.5,0,1.154701,25.980762,13.590068)">
            <path d="M280,447.798L280,455.262C280,457.321 278.328,458.993 276.268,458.993L193.732,458.993C191.672,458.993 190,457.321 190,455.262L190,447.798C190,445.739 191.672,444.066 193.732,444.066L276.268,444.066C278.328,444.066 280,445.739 280,447.798Z" style="fill:rgb(69,69,69);"/>
        </g>
        <g id="Path_377110" serif:id="Path_3771" transform="matrix(8.660254,0,0,33.774674,244.998587,417.899349)">
            <path d="M-0.29,-1.294L1.71,-1.294L1.71,3.475C1.71,3.697 1.259,3.697 0.71,3.697C0.161,3.697 -0.29,3.697 -0.29,3.475L-0.29,-1.294Z" style="fill:rgb(60,60,60);fill-rule:nonzero;"/>
        </g>
        <g id="Path_377111" serif:id="Path_3771" transform="matrix(8.660254,0,0,33.774674,193.037063,387.899349)">
            <path d="M-0.29,-1.294L1.71,-1.294L1.71,3.475C1.71,3.697 1.259,3.697 0.71,3.697C0.161,3.697 -0.29,3.697 -0.29,3.475L-0.29,-1.294Z" style="fill:rgb(60,60,60);fill-rule:nonzero;"/>
        </g>
        <g id="Path_37631" serif:id="Path_3763" transform="matrix(33.774674,0,0,33.774674,-5601.179574,34108.353898)">
            <path d="M169.173,-1000.553L179.43,-994.631L179.43,-995.52L169.173,-1001.441L169.173,-1000.553Z" style="fill:rgb(255,158,0);fill-rule:nonzero;"/>
        </g>
        <g id="Path_37641" serif:id="Path_3764" transform="matrix(33.774674,0,0,33.774674,-5601.179574,34108.353898)">
            <path d="M179.43,-995.52L187.894,-1000.407L187.894,-999.518L179.43,-994.631L179.43,-995.52Z" style="fill:rgb(165,102,0);fill-rule:nonzero;"/>
        </g>
        <g id="Path_37671" serif:id="Path_3767" transform="matrix(33.774674,0,0,33.774674,-5615.871557,34108.536787)">
            <path d="M169.608,-1001.447L179.865,-995.525L188.329,-1000.409L178.07,-1006.332L169.608,-1001.447Z" style="fill:rgb(189,189,189);fill-rule:nonzero;"/>
        </g>
    </g>
</svg>
