<?xml version="1.0" encoding="UTF-8" standalone="no"?>
<!DOCTYPE svg PUBLIC "-//W3C//DTD SVG 1.1//EN" "http://www.w3.org/Graphics/SVG/1.1/DTD/svg11.dtd">
<svg width="100%" height="100%" viewBox="0 0 64 64" version="1.1" xmlns="http://www.w3.org/2000/svg" xmlns:xlink="http://www.w3.org/1999/xlink" xml:space="preserve" xmlns:serif="http://www.serif.com/" style="fill-rule:evenodd;clip-rule:evenodd;stroke-linejoin:round;stroke-miterlimit:2;">
    <g transform="matrix(3.337099,0,0,3.337099,-111.358574,-38.215717)">
        <g id="white" transform="matrix(0.482659,0,0,0.482659,27.513954,5.59586)">
            <path d="M31.04,51.35L16.225,42.838C15.315,42.313 14.752,41.34 14.75,40.289L14.75,33.619L31.04,42.98L31.04,51.35ZM21.954,26.256L31.04,21.017L31.04,12.65L16.215,21.25C15.31,21.776 14.751,22.747 14.75,23.794L14.75,30.243C14.75,30.996 15.15,31.695 15.799,32.076L21.949,35.69L21.954,26.256ZM32.96,21.02L49.25,30.38L49.25,23.71C49.249,22.659 48.685,21.684 47.774,21.16L32.96,12.65L32.96,21.02ZM42.046,37.742L32.96,42.983L32.96,51.35L47.785,42.75C48.69,42.223 49.248,41.253 49.25,40.206L49.25,33.757C49.25,33.004 48.85,32.305 48.201,31.924L42.05,28.31L42.046,37.742Z" style="fill:url(#_Linear1);fill-rule:nonzero;"/>
        </g>
    </g>
    <defs>
        <linearGradient id="_Linear1" x1="0" y1="0" x2="1" y2="0" gradientUnits="userSpaceOnUse" gradientTransform="matrix(0,38.7,-38.7,0,32,12.65)"><stop offset="0" style="stop-color:rgb(49,82,255);stop-opacity:1"/><stop offset="1" style="stop-color:rgb(0,193,255);stop-opacity:1"/></linearGradient>
    </defs>
</svg>
